<svg width="60" height="60" viewBox="0 0 60 60" fill="none" xmlns="http://www.w3.org/2000/svg">
<g id="Icon/Outline/user-group">
<path id="Icon" d="M42.5 50.0001H55V45.0001C55 40.8579 51.6422 37.5001 47.5 37.5001C45.111 37.5001 42.9829 38.6171 41.6094 40.3573M42.5 50.0001H17.5M42.5 50.0001V45.0001C42.5 43.3595 42.184 41.7927 41.6094 40.3573M17.5 50.0001H4.99994V45.0001C4.99994 40.8579 8.35781 37.5001 12.5 37.5001C14.889 37.5001 17.0171 38.6171 18.3906 40.3573M17.5 50.0001V45.0001C17.5 43.3595 17.816 41.7927 18.3906 40.3573M18.3906 40.3573C20.2337 35.7526 24.737 32.5 30 32.5C35.263 32.5 39.7663 35.7526 41.6094 40.3573M37.5 17.5C37.5 21.6422 34.1421 25 30 25C25.8578 25 22.5 21.6422 22.5 17.5C22.5 13.3579 25.8578 10 30 10C34.1421 10 37.5 13.3579 37.5 17.5ZM52.5 25C52.5 27.7615 50.2615 30 47.5 30C44.7386 30 42.5 27.7615 42.5 25C42.5 22.2386 44.7386 20 47.5 20C50.2615 20 52.5 22.2386 52.5 25ZM17.5 25C17.5 27.7615 15.2614 30 12.5 30C9.73852 30 7.49994 27.7615 7.49994 25C7.49994 22.2386 9.73852 20 12.5 20C15.2614 20 17.5 22.2386 17.5 25Z" stroke="#086D39" stroke-width="3.00001" stroke-linecap="round" stroke-linejoin="round"/>
</g>
</svg>
