<svg width="96" height="97" viewBox="0 0 96 97" fill="none" xmlns="http://www.w3.org/2000/svg">
<rect x="12" y="12.5" width="72" height="72" rx="8" fill="black"/>
<path d="M59.0091 46.6611C58.8037 46.5627 58.5942 46.467 58.3819 46.377C58.0134 39.5764 54.2981 35.6825 48.0586 35.6431C44.4586 35.6192 41.2355 37.0873 39.2273 40.1347L42.6586 42.4888C44.0859 40.3231 46.3261 39.8619 47.9756 39.8619H48.0319C50.0864 39.8745 51.6375 40.4722 52.6402 41.6366C53.37 42.4859 53.8594 43.6573 54.1013 45.1367C52.2788 44.8273 50.31 44.7317 48.2034 44.8527C42.2719 45.1944 38.4581 48.6538 38.7141 53.4603C38.8434 55.9002 40.0584 57.9969 42.1341 59.368C43.8891 60.5267 46.1503 61.0934 48.4988 60.9641C51.6023 60.7953 54.0352 59.6113 55.7339 57.447C57.0234 55.8031 57.8391 53.6727 58.1991 50.9895C59.677 51.8811 60.7725 53.0553 61.3786 54.4672C62.4066 56.8663 62.467 60.8094 59.2495 64.0241C56.4314 66.8408 53.0423 68.0586 47.9222 68.0966C42.2409 68.0544 37.9448 66.2319 35.152 62.6811C32.5364 59.3567 31.185 54.5544 31.1344 48.4077C31.185 42.2609 32.5364 37.4586 35.152 34.1342C37.9448 30.5834 42.2409 28.7609 47.9222 28.7188C53.6428 28.7609 58.0134 30.5919 60.9145 34.1595C62.3363 35.9089 63.4078 38.1097 64.1152 40.6747L68.1356 39.6017C67.2792 36.4447 65.932 33.7236 64.0969 31.4666C60.3788 26.892 54.9422 24.5492 47.9363 24.5H47.9081C40.9163 24.5492 35.5388 26.9019 31.9275 31.4933C28.7128 35.5784 27.0548 41.2639 27 48.3908V48.4245C27.0548 55.5514 28.7128 61.2369 31.9275 65.322C35.5388 69.9134 40.9163 72.2675 47.9081 72.3153H47.9363C54.1519 72.2717 58.5338 70.6447 62.1436 67.0377C66.8658 62.3197 66.7238 56.4064 65.167 52.7755C64.0505 50.1725 61.9214 48.0575 59.0091 46.6611ZM48.2766 56.7523C45.6778 56.8986 42.9764 55.7314 42.8428 53.2325C42.7444 51.3791 44.1619 49.3105 48.4369 49.0644C48.9263 49.0363 49.4072 49.0222 49.8783 49.0222C51.4308 49.0222 52.8834 49.1727 54.2039 49.4623C53.7117 55.6133 50.8233 56.6117 48.2766 56.7523Z" fill="white"/>
</svg>
