<svg width="96" height="97" viewBox="0 0 96 97" fill="none" xmlns="http://www.w3.org/2000/svg">
<rect x="12" y="12.0172" width="72" height="72" rx="8" fill="#5865F2"/>
<path fill-rule="evenodd" clip-rule="evenodd" d="M40.1093 28.0423C40.0865 28.0653 39.8779 28.1155 39.6457 28.1538C38.9253 28.2731 37.9181 28.482 37.2191 28.657C37.0701 28.6943 36.8181 28.7575 36.6592 28.7973C36.1897 28.915 35.7687 29.0276 35.5757 29.0869C35.4763 29.1175 35.2488 29.1836 35.07 29.2337C33.7163 29.6137 30.8434 30.6672 29.5397 31.2618C29.1946 31.4191 28.4614 32.3645 27.953 33.3073C27.9055 33.3953 27.7291 33.6916 27.5609 33.9657C27.2268 34.51 27.0706 34.7811 26.7416 35.386C26.6226 35.6051 26.4232 35.9635 26.2987 36.1825C25.9513 36.7938 24.9412 38.8741 24.5672 39.7484C24.5033 39.8977 24.4049 40.1258 24.3483 40.2552C23.8922 41.3001 23.0929 43.5381 22.7837 44.6356C22.7472 44.765 22.6831 44.9931 22.641 45.1424C22.5991 45.2917 22.5341 45.5198 22.4965 45.6492C22.2775 46.4059 22.1926 46.7319 22.0633 47.3145C21.4791 49.9475 21.214 51.816 21.0493 54.4644C20.9521 56.0259 21.0075 60.2438 21.1381 61.2232L21.1414 61.2482C21.1967 61.6628 21.4271 62.0338 21.7742 62.2673V62.2673C22.0745 62.4691 22.3363 62.6565 22.3562 62.6836C22.3761 62.7108 22.4248 62.7461 22.4646 62.7622C22.5043 62.7783 22.9106 63.0386 23.3675 63.3405C24.8565 64.3243 25.9349 64.9469 27.6295 65.802C28.4865 66.2345 30.0435 66.954 30.1221 66.954C30.1398 66.954 30.3672 67.0517 30.6274 67.1712C30.8876 67.2906 31.1327 67.3884 31.1719 67.3884C31.2113 67.3884 31.2997 67.4172 31.3687 67.4523C31.4377 67.4876 31.5918 67.5565 31.711 67.6056C31.8301 67.6546 31.9842 67.7236 32.0532 67.7589C32.1222 67.794 32.2282 67.8228 32.2889 67.8228C32.3495 67.8228 32.4637 67.8554 32.5426 67.8952C32.6215 67.935 32.7508 68.0002 32.8297 68.04C32.9087 68.0798 33.0322 68.1124 33.1042 68.1124C33.1763 68.1124 33.266 68.1392 33.3038 68.1718C33.3415 68.2044 33.6162 68.3057 33.9142 68.397C34.2122 68.488 34.5333 68.5928 34.6279 68.6299C34.7224 68.6668 34.804 68.6877 34.8092 68.6763C34.8145 68.6649 34.9183 68.5251 35.0402 68.3658C35.7075 67.4934 36.9563 65.4896 37.4881 64.4381C37.6933 64.0323 37.7247 64.0643 36.7315 63.6636C35.8332 63.3012 33.7251 62.274 33.4295 62.0548C33.1308 61.8332 33.1673 61.7498 33.7578 61.3041C34.2819 60.9086 34.2476 60.9106 34.9616 61.2312C35.2 61.3382 35.5088 61.468 35.6479 61.5194C35.787 61.5709 35.9982 61.6558 36.1174 61.708C36.2366 61.7601 36.4967 61.8557 36.6953 61.9203C36.894 61.9849 37.1215 62.0665 37.201 62.1018C37.2805 62.137 37.4755 62.205 37.6344 62.253C37.7933 62.301 37.9884 62.3638 38.0678 62.3925C38.7805 62.6507 40.6588 63.1383 41.6797 63.33C43.4024 63.6538 44.6416 63.8024 46.5711 63.917C49.8017 64.1087 54.095 63.5794 57.1746 62.6101C57.3932 62.5413 57.8157 62.4094 58.1137 62.3167C58.4117 62.2242 58.688 62.1277 58.7277 62.1026C58.7675 62.0772 58.9463 62.0124 59.1251 61.9585C59.3038 61.9047 59.481 61.8336 59.5187 61.8006C59.5565 61.7679 59.63 61.7409 59.682 61.7409C59.7342 61.7409 59.9309 61.6725 60.119 61.5889C60.3074 61.5052 60.5264 61.4108 60.6059 61.3789C60.6854 61.347 60.8967 61.2567 61.0755 61.1783C61.6741 60.9157 61.6649 60.9148 62.1735 61.3007C62.7609 61.7463 62.7983 61.8329 62.4993 62.0551C62.1355 62.3256 60.1911 63.277 59.2153 63.6618C58.7286 63.8536 58.3304 64.0506 58.3304 64.0993C58.3304 64.3791 60.2272 67.5002 60.9651 68.435C61.0836 68.585 61.5486 68.6084 61.6857 68.471C61.7236 68.433 61.8273 68.402 61.9163 68.402C62.0053 68.402 62.0983 68.3694 62.1229 68.3296C62.1475 68.2898 62.245 68.2572 62.3396 68.2572C62.4342 68.2572 62.5318 68.2246 62.5563 68.1848C62.5809 68.145 62.6739 68.1124 62.7629 68.1124C62.852 68.1124 62.9556 68.0865 62.9934 68.0549C63.0311 68.0232 63.192 67.9558 63.3509 67.9052C63.6341 67.815 63.7457 67.7734 64.1094 67.6224C64.2088 67.5812 64.4851 67.4733 64.7234 67.383C65.5748 67.06 67.2985 66.2945 68.2783 65.8042C69.6089 65.1381 70.2059 64.8275 70.2496 64.7782C70.2695 64.756 70.562 64.5813 70.8997 64.39C71.2375 64.1987 71.6275 63.9688 71.7666 63.8792C71.9057 63.7894 72.3537 63.4998 72.7624 63.2353C73.1709 62.9709 73.5339 62.7546 73.5689 62.7546C73.6041 62.7546 73.6435 62.728 73.6569 62.6952C73.67 62.6626 73.8922 62.4934 74.1504 62.3191C74.4087 62.1449 74.6541 61.9679 74.6956 61.9259C75.0435 61.5751 75.1126 55.4194 74.8015 52.5095C74.6303 50.9093 74.3187 48.936 74.0755 47.9118C74.0329 47.7327 73.9691 47.4557 73.9337 47.2964C73.8983 47.1371 73.8366 46.8765 73.7965 46.7172C73.7564 46.5579 73.6917 46.2973 73.6529 46.138C73.5873 45.8695 73.5386 45.6914 73.3607 45.07C73.3237 44.9406 73.2722 44.7532 73.2464 44.6537C73.2204 44.5541 73.1738 44.4075 73.1427 44.3279C73.1115 44.2482 72.9636 43.8084 72.8139 43.3504C72.4828 42.3382 71.5959 40.0526 71.2264 39.2596C70.1544 36.9587 68.7516 34.3659 67.9286 33.1647C67.8147 32.9982 67.7213 32.8271 67.7213 32.7846C67.7213 32.7421 67.6942 32.7071 67.6613 32.7071C67.6283 32.7071 67.5552 32.6175 67.4988 32.508C67.4423 32.3985 67.3393 32.2457 67.2698 32.1686C67.2003 32.0913 67.1434 31.9854 67.1434 31.9333C67.1434 31.881 67.119 31.8381 67.0892 31.8377C67.0594 31.8376 66.9843 31.748 66.9222 31.6386C66.7795 31.3874 66.4797 31.2373 64.6873 30.5191C64.151 30.3042 63.2245 29.9712 62.6286 29.7789C62.0326 29.5867 61.48 29.405 61.4005 29.3749C61.3211 29.3451 61.1098 29.2806 60.931 29.2316C60.7522 29.1827 60.5246 29.1175 60.4253 29.0869C60.326 29.0564 60.1147 28.9977 59.9558 28.9564C59.7969 28.9153 59.5205 28.8437 59.3418 28.7973C58.4977 28.5783 57.564 28.3685 56.7773 28.221C56.539 28.1763 56.2038 28.1082 56.0326 28.0695C55.6083 27.9736 55.6206 27.9582 54.8219 29.5938C54.5593 30.1314 54.3193 30.6201 54.2884 30.6798C54.2212 30.8101 53.663 30.8136 52.6237 30.6901C49.7214 30.3457 46.1044 30.3426 43.3051 30.6825C43.0071 30.7187 42.5357 30.7683 42.2576 30.7928V30.7928C41.9532 30.8196 41.6639 30.6555 41.5307 30.3805L41.1789 29.6544C40.8638 29.0039 40.5873 28.4552 40.5647 28.4353C40.5422 28.4154 40.4777 28.3095 40.4213 28.2C40.3245 28.0118 40.2017 27.9498 40.1093 28.0423ZM39.9099 45.0465C42.0703 45.579 43.3833 47.0501 43.8772 49.4922C44.0289 50.2423 43.896 51.6062 43.5971 52.3647C42.9901 53.9054 41.9833 54.9656 40.6142 55.5059C39.5509 55.9256 38.0173 55.8578 37.0565 55.3482C36.9771 55.3062 36.782 55.205 36.6231 55.1236C36.2581 54.9364 35.0826 53.7548 34.884 53.3751C34.8015 53.2176 34.6996 53.0235 34.6577 52.9439C34.2669 52.2034 34.1004 51.4294 34.0975 50.3374C34.0944 49.2803 34.1849 48.8683 34.662 47.767C34.7626 47.535 35.1321 46.9769 35.3093 46.7896C35.3846 46.7099 35.4955 46.5713 35.5556 46.4817C36.241 45.4583 38.5257 44.7053 39.9099 45.0465ZM58.0651 45.0883C59.2423 45.3857 60.1315 45.9769 60.8587 46.9458C61.1311 47.3084 61.5257 48.0829 61.6461 48.4911C61.699 48.6703 61.7787 48.9146 61.8233 49.0341C61.9416 49.3516 61.93 51.3449 61.8076 51.7492C61.5454 52.6148 61.3879 52.9656 60.9792 53.5955C60.0808 54.9801 58.6956 55.7464 57.0663 55.7602C55.9852 55.7694 55.7736 55.7097 54.4973 55.0356C53.3369 54.2214 52.8497 53.3487 52.6892 52.9975C52.6413 52.8925 52.6005 52.7845 52.5483 52.6816V52.6816C51.913 51.4297 51.9246 49.3637 52.5599 48.1119C52.595 48.0427 52.6237 47.9368 52.6237 47.8766C52.6237 47.8163 52.6482 47.767 52.6782 47.767C52.7084 47.767 52.7792 47.6612 52.8355 47.5317C53.6168 45.7416 56.0851 44.5883 58.0651 45.0883Z" fill="#FBFBFC"/>
</svg>
