<svg width="429" height="465" viewBox="0 0 429 465" fill="none" xmlns="http://www.w3.org/2000/svg">
<path d="M20 18.9414C23.3137 18.9414 26 16.2551 26 12.9414C26 9.6277 23.3137 6.94141 20 6.94141C16.6863 6.94141 14 9.6277 14 12.9414C14 16.2551 16.6863 18.9414 20 18.9414Z" fill="#017B3C"/>
<path d="M6 36.9414C6 29.2094 12.268 22.9414 20 22.9414C27.732 22.9414 34 29.2094 34 36.9414H6Z" fill="#017B3C"/>
<path d="M60 18.9414C63.3137 18.9414 66 16.2551 66 12.9414C66 9.6277 63.3137 6.94141 60 6.94141C56.6863 6.94141 54 9.6277 54 12.9414C54 16.2551 56.6863 18.9414 60 18.9414Z" fill="#017B3C"/>
<path d="M46 36.9414C46 29.2094 52.268 22.9414 60 22.9414C67.732 22.9414 74 29.2094 74 36.9414H46Z" fill="#017B3C"/>
<path d="M100 18.9414C103.314 18.9414 106 16.2551 106 12.9414C106 9.6277 103.314 6.94141 100 6.94141C96.6863 6.94141 94 9.6277 94 12.9414C94 16.2551 96.6863 18.9414 100 18.9414Z" fill="#017B3C"/>
<path d="M86 36.9414C86 29.2094 92.268 22.9414 100 22.9414C107.732 22.9414 114 29.2094 114 36.9414H86Z" fill="#017B3C"/>
<path d="M140 18.9414C143.314 18.9414 146 16.2551 146 12.9414C146 9.6277 143.314 6.94141 140 6.94141C136.686 6.94141 134 9.6277 134 12.9414C134 16.2551 136.686 18.9414 140 18.9414Z" fill="#017B3C"/>
<path d="M126 36.9414C126 29.2094 132.268 22.9414 140 22.9414C147.732 22.9414 154 29.2094 154 36.9414H126Z" fill="#017B3C"/>
<path d="M180 18.9414C183.314 18.9414 186 16.2551 186 12.9414C186 9.6277 183.314 6.94141 180 6.94141C176.686 6.94141 174 9.6277 174 12.9414C174 16.2551 176.686 18.9414 180 18.9414Z" fill="#017B3C"/>
<path d="M166 36.9414C166 29.2094 172.268 22.9414 180 22.9414C187.732 22.9414 194 29.2094 194 36.9414H166Z" fill="#017B3C"/>
<path d="M220 18.9414C223.314 18.9414 226 16.2551 226 12.9414C226 9.6277 223.314 6.94141 220 6.94141C216.686 6.94141 214 9.6277 214 12.9414C214 16.2551 216.686 18.9414 220 18.9414Z" fill="#017B3C"/>
<path d="M206 36.9414C206 29.2094 212.268 22.9414 220 22.9414C227.732 22.9414 234 29.2094 234 36.9414H206Z" fill="#017B3C"/>
<path d="M260 18.9414C263.314 18.9414 266 16.2551 266 12.9414C266 9.6277 263.314 6.94141 260 6.94141C256.686 6.94141 254 9.6277 254 12.9414C254 16.2551 256.686 18.9414 260 18.9414Z" fill="#017B3C"/>
<path d="M246 36.9414C246 29.2094 252.268 22.9414 260 22.9414C267.732 22.9414 274 29.2094 274 36.9414H246Z" fill="#017B3C"/>
<path d="M300 18.9414C303.314 18.9414 306 16.2551 306 12.9414C306 9.6277 303.314 6.94141 300 6.94141C296.686 6.94141 294 9.6277 294 12.9414C294 16.2551 296.686 18.9414 300 18.9414Z" fill="#017B3C"/>
<path d="M286 36.9414C286 29.2094 292.268 22.9414 300 22.9414C307.732 22.9414 314 29.2094 314 36.9414H286Z" fill="#017B3C"/>
<path d="M340 18.9414C343.314 18.9414 346 16.2551 346 12.9414C346 9.6277 343.314 6.94141 340 6.94141C336.686 6.94141 334 9.6277 334 12.9414C334 16.2551 336.686 18.9414 340 18.9414Z" fill="#017B3C"/>
<path d="M326 36.9414C326 29.2094 332.268 22.9414 340 22.9414C347.732 22.9414 354 29.2094 354 36.9414H326Z" fill="#017B3C"/>
<path d="M380 18.9414C383.314 18.9414 386 16.2551 386 12.9414C386 9.6277 383.314 6.94141 380 6.94141C376.686 6.94141 374 9.6277 374 12.9414C374 16.2551 376.686 18.9414 380 18.9414Z" fill="#017B3C"/>
<path d="M366 36.9414C366 29.2094 372.268 22.9414 380 22.9414C387.732 22.9414 394 29.2094 394 36.9414H366Z" fill="#017B3C"/>
<path d="M20 58.9414C23.3137 58.9414 26 56.2551 26 52.9414C26 49.6277 23.3137 46.9414 20 46.9414C16.6863 46.9414 14 49.6277 14 52.9414C14 56.2551 16.6863 58.9414 20 58.9414Z" fill="#017B3C"/>
<path d="M6 76.9414C6 69.2094 12.268 62.9414 20 62.9414C27.732 62.9414 34 69.2094 34 76.9414H6Z" fill="#017B3C"/>
<path d="M60 58.9414C63.3137 58.9414 66 56.2551 66 52.9414C66 49.6277 63.3137 46.9414 60 46.9414C56.6863 46.9414 54 49.6277 54 52.9414C54 56.2551 56.6863 58.9414 60 58.9414Z" fill="#017B3C"/>
<path d="M46 76.9414C46 69.2094 52.268 62.9414 60 62.9414C67.732 62.9414 74 69.2094 74 76.9414H46Z" fill="#017B3C"/>
<path d="M100 58.9414C103.314 58.9414 106 56.2551 106 52.9414C106 49.6277 103.314 46.9414 100 46.9414C96.6863 46.9414 94 49.6277 94 52.9414C94 56.2551 96.6863 58.9414 100 58.9414Z" fill="#017B3C"/>
<path d="M86 76.9414C86 69.2094 92.268 62.9414 100 62.9414C107.732 62.9414 114 69.2094 114 76.9414H86Z" fill="#017B3C"/>
<path d="M140 58.9414C143.314 58.9414 146 56.2551 146 52.9414C146 49.6277 143.314 46.9414 140 46.9414C136.686 46.9414 134 49.6277 134 52.9414C134 56.2551 136.686 58.9414 140 58.9414Z" fill="#017B3C"/>
<path d="M126 76.9414C126 69.2094 132.268 62.9414 140 62.9414C147.732 62.9414 154 69.2094 154 76.9414H126Z" fill="#017B3C"/>
<path d="M180 58.9414C183.314 58.9414 186 56.2551 186 52.9414C186 49.6277 183.314 46.9414 180 46.9414C176.686 46.9414 174 49.6277 174 52.9414C174 56.2551 176.686 58.9414 180 58.9414Z" fill="#017B3C"/>
<path d="M166 76.9414C166 69.2094 172.268 62.9414 180 62.9414C187.732 62.9414 194 69.2094 194 76.9414H166Z" fill="#017B3C"/>
<path d="M220 58.9414C223.314 58.9414 226 56.2551 226 52.9414C226 49.6277 223.314 46.9414 220 46.9414C216.686 46.9414 214 49.6277 214 52.9414C214 56.2551 216.686 58.9414 220 58.9414Z" fill="#017B3C"/>
<path d="M206 76.9414C206 69.2094 212.268 62.9414 220 62.9414C227.732 62.9414 234 69.2094 234 76.9414H206Z" fill="#017B3C"/>
<path d="M260 58.9414C263.314 58.9414 266 56.2551 266 52.9414C266 49.6277 263.314 46.9414 260 46.9414C256.686 46.9414 254 49.6277 254 52.9414C254 56.2551 256.686 58.9414 260 58.9414Z" fill="#017B3C"/>
<path d="M246 76.9414C246 69.2094 252.268 62.9414 260 62.9414C267.732 62.9414 274 69.2094 274 76.9414H246Z" fill="#017B3C"/>
<path d="M300 58.9414C303.314 58.9414 306 56.2551 306 52.9414C306 49.6277 303.314 46.9414 300 46.9414C296.686 46.9414 294 49.6277 294 52.9414C294 56.2551 296.686 58.9414 300 58.9414Z" fill="#017B3C"/>
<path d="M286 76.9414C286 69.2094 292.268 62.9414 300 62.9414C307.732 62.9414 314 69.2094 314 76.9414H286Z" fill="#017B3C"/>
<path d="M340 58.9414C343.314 58.9414 346 56.2551 346 52.9414C346 49.6277 343.314 46.9414 340 46.9414C336.686 46.9414 334 49.6277 334 52.9414C334 56.2551 336.686 58.9414 340 58.9414Z" fill="#017B3C"/>
<path d="M326 76.9414C326 69.2094 332.268 62.9414 340 62.9414C347.732 62.9414 354 69.2094 354 76.9414H326Z" fill="#017B3C"/>
<path d="M380 58.9414C383.314 58.9414 386 56.2551 386 52.9414C386 49.6277 383.314 46.9414 380 46.9414C376.686 46.9414 374 49.6277 374 52.9414C374 56.2551 376.686 58.9414 380 58.9414Z" fill="#017B3C"/>
<path d="M366 76.9414C366 69.2094 372.268 62.9414 380 62.9414C387.732 62.9414 394 69.2094 394 76.9414H366Z" fill="#017B3C"/>
<path d="M20 98.9414C23.3137 98.9414 26 96.2551 26 92.9414C26 89.6277 23.3137 86.9414 20 86.9414C16.6863 86.9414 14 89.6277 14 92.9414C14 96.2551 16.6863 98.9414 20 98.9414Z" fill="#017B3C"/>
<path d="M6 116.941C6 109.209 12.268 102.941 20 102.941C27.732 102.941 34 109.209 34 116.941H6Z" fill="#017B3C"/>
<path d="M60 98.9414C63.3137 98.9414 66 96.2551 66 92.9414C66 89.6277 63.3137 86.9414 60 86.9414C56.6863 86.9414 54 89.6277 54 92.9414C54 96.2551 56.6863 98.9414 60 98.9414Z" fill="#017B3C"/>
<path d="M46 116.941C46 109.209 52.268 102.941 60 102.941C67.732 102.941 74 109.209 74 116.941H46Z" fill="#017B3C"/>
<path d="M100 98.9414C103.314 98.9414 106 96.2551 106 92.9414C106 89.6277 103.314 86.9414 100 86.9414C96.6863 86.9414 94 89.6277 94 92.9414C94 96.2551 96.6863 98.9414 100 98.9414Z" fill="#017B3C"/>
<path d="M86 116.941C86 109.209 92.268 102.941 100 102.941C107.732 102.941 114 109.209 114 116.941H86Z" fill="#017B3C"/>
<path d="M140 98.9414C143.314 98.9414 146 96.2551 146 92.9414C146 89.6277 143.314 86.9414 140 86.9414C136.686 86.9414 134 89.6277 134 92.9414C134 96.2551 136.686 98.9414 140 98.9414Z" fill="#017B3C"/>
<path d="M126 116.941C126 109.209 132.268 102.941 140 102.941C147.732 102.941 154 109.209 154 116.941H126Z" fill="#017B3C"/>
<path d="M180 98.9414C183.314 98.9414 186 96.2551 186 92.9414C186 89.6277 183.314 86.9414 180 86.9414C176.686 86.9414 174 89.6277 174 92.9414C174 96.2551 176.686 98.9414 180 98.9414Z" fill="#017B3C"/>
<path d="M166 116.941C166 109.209 172.268 102.941 180 102.941C187.732 102.941 194 109.209 194 116.941H166Z" fill="#017B3C"/>
<path d="M220 98.9414C223.314 98.9414 226 96.2551 226 92.9414C226 89.6277 223.314 86.9414 220 86.9414C216.686 86.9414 214 89.6277 214 92.9414C214 96.2551 216.686 98.9414 220 98.9414Z" fill="#017B3C"/>
<path d="M206 116.941C206 109.209 212.268 102.941 220 102.941C227.732 102.941 234 109.209 234 116.941H206Z" fill="#017B3C"/>
<path d="M260 98.9414C263.314 98.9414 266 96.2551 266 92.9414C266 89.6277 263.314 86.9414 260 86.9414C256.686 86.9414 254 89.6277 254 92.9414C254 96.2551 256.686 98.9414 260 98.9414Z" fill="#017B3C"/>
<path d="M246 116.941C246 109.209 252.268 102.941 260 102.941C267.732 102.941 274 109.209 274 116.941H246Z" fill="#017B3C"/>
<path d="M300 98.9414C303.314 98.9414 306 96.2551 306 92.9414C306 89.6277 303.314 86.9414 300 86.9414C296.686 86.9414 294 89.6277 294 92.9414C294 96.2551 296.686 98.9414 300 98.9414Z" fill="#017B3C"/>
<path d="M286 116.941C286 109.209 292.268 102.941 300 102.941C307.732 102.941 314 109.209 314 116.941H286Z" fill="#017B3C"/>
<path d="M340 98.9414C343.314 98.9414 346 96.2551 346 92.9414C346 89.6277 343.314 86.9414 340 86.9414C336.686 86.9414 334 89.6277 334 92.9414C334 96.2551 336.686 98.9414 340 98.9414Z" fill="#017B3C"/>
<path d="M326 116.941C326 109.209 332.268 102.941 340 102.941C347.732 102.941 354 109.209 354 116.941H326Z" fill="#017B3C"/>
<path d="M380 98.9414C383.314 98.9414 386 96.2551 386 92.9414C386 89.6277 383.314 86.9414 380 86.9414C376.686 86.9414 374 89.6277 374 92.9414C374 96.2551 376.686 98.9414 380 98.9414Z" fill="#017B3C"/>
<path d="M366 116.941C366 109.209 372.268 102.941 380 102.941C387.732 102.941 394 109.209 394 116.941H366Z" fill="#017B3C"/>
<path d="M20 138.941C23.3137 138.941 26 136.255 26 132.941C26 129.628 23.3137 126.941 20 126.941C16.6863 126.941 14 129.628 14 132.941C14 136.255 16.6863 138.941 20 138.941Z" fill="#017B3C"/>
<path d="M6 156.941C6 149.209 12.268 142.941 20 142.941C27.732 142.941 34 149.209 34 156.941H6Z" fill="#017B3C"/>
<path d="M60 138.941C63.3137 138.941 66 136.255 66 132.941C66 129.628 63.3137 126.941 60 126.941C56.6863 126.941 54 129.628 54 132.941C54 136.255 56.6863 138.941 60 138.941Z" fill="#017B3C"/>
<path d="M46 156.941C46 149.209 52.268 142.941 60 142.941C67.732 142.941 74 149.209 74 156.941H46Z" fill="#017B3C"/>
<path d="M100 138.941C103.314 138.941 106 136.255 106 132.941C106 129.628 103.314 126.941 100 126.941C96.6863 126.941 94 129.628 94 132.941C94 136.255 96.6863 138.941 100 138.941Z" fill="#017B3C"/>
<path d="M86 156.941C86 149.209 92.268 142.941 100 142.941C107.732 142.941 114 149.209 114 156.941H86Z" fill="#017B3C"/>
<path d="M140 138.941C143.314 138.941 146 136.255 146 132.941C146 129.628 143.314 126.941 140 126.941C136.686 126.941 134 129.628 134 132.941C134 136.255 136.686 138.941 140 138.941Z" fill="#017B3C"/>
<path d="M126 156.941C126 149.209 132.268 142.941 140 142.941C147.732 142.941 154 149.209 154 156.941H126Z" fill="#017B3C"/>
<path d="M180 138.941C183.314 138.941 186 136.255 186 132.941C186 129.628 183.314 126.941 180 126.941C176.686 126.941 174 129.628 174 132.941C174 136.255 176.686 138.941 180 138.941Z" fill="#017B3C"/>
<path d="M166 156.941C166 149.209 172.268 142.941 180 142.941C187.732 142.941 194 149.209 194 156.941H166Z" fill="#017B3C"/>
<path d="M220 138.941C223.314 138.941 226 136.255 226 132.941C226 129.628 223.314 126.941 220 126.941C216.686 126.941 214 129.628 214 132.941C214 136.255 216.686 138.941 220 138.941Z" fill="#017B3C"/>
<path d="M206 156.941C206 149.209 212.268 142.941 220 142.941C227.732 142.941 234 149.209 234 156.941H206Z" fill="#017B3C"/>
<path d="M260 138.941C263.314 138.941 266 136.255 266 132.941C266 129.628 263.314 126.941 260 126.941C256.686 126.941 254 129.628 254 132.941C254 136.255 256.686 138.941 260 138.941Z" fill="#017B3C"/>
<path d="M246 156.941C246 149.209 252.268 142.941 260 142.941C267.732 142.941 274 149.209 274 156.941H246Z" fill="#017B3C"/>
<path d="M300 138.941C303.314 138.941 306 136.255 306 132.941C306 129.628 303.314 126.941 300 126.941C296.686 126.941 294 129.628 294 132.941C294 136.255 296.686 138.941 300 138.941Z" fill="#017B3C"/>
<path d="M286 156.941C286 149.209 292.268 142.941 300 142.941C307.732 142.941 314 149.209 314 156.941H286Z" fill="#017B3C"/>
<path d="M340 138.941C343.314 138.941 346 136.255 346 132.941C346 129.628 343.314 126.941 340 126.941C336.686 126.941 334 129.628 334 132.941C334 136.255 336.686 138.941 340 138.941Z" fill="#017B3C"/>
<path d="M326 156.941C326 149.209 332.268 142.941 340 142.941C347.732 142.941 354 149.209 354 156.941H326Z" fill="#017B3C"/>
<path d="M380 138.941C383.314 138.941 386 136.255 386 132.941C386 129.628 383.314 126.941 380 126.941C376.686 126.941 374 129.628 374 132.941C374 136.255 376.686 138.941 380 138.941Z" fill="#017B3C"/>
<path d="M366 156.941C366 149.209 372.268 142.941 380 142.941C387.732 142.941 394 149.209 394 156.941H366Z" fill="#017B3C"/>
<path d="M20 178.941C23.3137 178.941 26 176.255 26 172.941C26 169.628 23.3137 166.941 20 166.941C16.6863 166.941 14 169.628 14 172.941C14 176.255 16.6863 178.941 20 178.941Z" fill="#017B3C"/>
<path d="M6 196.941C6 189.209 12.268 182.941 20 182.941C27.732 182.941 34 189.209 34 196.941H6Z" fill="#017B3C"/>
<path d="M60 178.941C63.3137 178.941 66 176.255 66 172.941C66 169.628 63.3137 166.941 60 166.941C56.6863 166.941 54 169.628 54 172.941C54 176.255 56.6863 178.941 60 178.941Z" fill="#017B3C"/>
<path d="M46 196.941C46 189.209 52.268 182.941 60 182.941C67.732 182.941 74 189.209 74 196.941H46Z" fill="#017B3C"/>
<path d="M100 178.941C103.314 178.941 106 176.255 106 172.941C106 169.628 103.314 166.941 100 166.941C96.6863 166.941 94 169.628 94 172.941C94 176.255 96.6863 178.941 100 178.941Z" fill="#017B3C"/>
<path d="M86 196.941C86 189.209 92.268 182.941 100 182.941C107.732 182.941 114 189.209 114 196.941H86Z" fill="#017B3C"/>
<path d="M140 178.941C143.314 178.941 146 176.255 146 172.941C146 169.628 143.314 166.941 140 166.941C136.686 166.941 134 169.628 134 172.941C134 176.255 136.686 178.941 140 178.941Z" fill="#017B3C"/>
<path d="M126 196.941C126 189.209 132.268 182.941 140 182.941C147.732 182.941 154 189.209 154 196.941H126Z" fill="#017B3C"/>
<path d="M180 178.941C183.314 178.941 186 176.255 186 172.941C186 169.628 183.314 166.941 180 166.941C176.686 166.941 174 169.628 174 172.941C174 176.255 176.686 178.941 180 178.941Z" fill="#1BBF6A"/>
<path d="M166 196.941C166 189.209 172.268 182.941 180 182.941C187.732 182.941 194 189.209 194 196.941H166Z" fill="#1BBF6A"/>
<path d="M220 178.941C223.314 178.941 226 176.255 226 172.941C226 169.628 223.314 166.941 220 166.941C216.686 166.941 214 169.628 214 172.941C214 176.255 216.686 178.941 220 178.941Z" fill="#1BBF6A"/>
<path d="M206 196.941C206 189.209 212.268 182.941 220 182.941C227.732 182.941 234 189.209 234 196.941H206Z" fill="#1BBF6A"/>
<path d="M260 178.941C263.314 178.941 266 176.255 266 172.941C266 169.628 263.314 166.941 260 166.941C256.686 166.941 254 169.628 254 172.941C254 176.255 256.686 178.941 260 178.941Z" fill="#1BBF6A"/>
<path d="M246 196.941C246 189.209 252.268 182.941 260 182.941C267.732 182.941 274 189.209 274 196.941H246Z" fill="#1BBF6A"/>
<path d="M300 178.941C303.314 178.941 306 176.255 306 172.941C306 169.628 303.314 166.941 300 166.941C296.686 166.941 294 169.628 294 172.941C294 176.255 296.686 178.941 300 178.941Z" fill="#1BBF6A"/>
<path d="M286 196.941C286 189.209 292.268 182.941 300 182.941C307.732 182.941 314 189.209 314 196.941H286Z" fill="#1BBF6A"/>
<path d="M340 178.941C343.314 178.941 346 176.255 346 172.941C346 169.628 343.314 166.941 340 166.941C336.686 166.941 334 169.628 334 172.941C334 176.255 336.686 178.941 340 178.941Z" fill="#1BBF6A"/>
<path d="M326 196.941C326 189.209 332.268 182.941 340 182.941C347.732 182.941 354 189.209 354 196.941H326Z" fill="#1BBF6A"/>
<path d="M380 178.941C383.314 178.941 386 176.255 386 172.941C386 169.628 383.314 166.941 380 166.941C376.686 166.941 374 169.628 374 172.941C374 176.255 376.686 178.941 380 178.941Z" fill="#1BBF6A"/>
<path d="M366 196.941C366 189.209 372.268 182.941 380 182.941C387.732 182.941 394 189.209 394 196.941H366Z" fill="#1BBF6A"/>
<path d="M20 218.941C23.3137 218.941 26 216.255 26 212.941C26 209.628 23.3137 206.941 20 206.941C16.6863 206.941 14 209.628 14 212.941C14 216.255 16.6863 218.941 20 218.941Z" fill="#1BBF6A"/>
<path d="M6 236.941C6 229.209 12.268 222.941 20 222.941C27.732 222.941 34 229.209 34 236.941H6Z" fill="#1BBF6A"/>
<path d="M60 218.941C63.3137 218.941 66 216.255 66 212.941C66 209.628 63.3137 206.941 60 206.941C56.6863 206.941 54 209.628 54 212.941C54 216.255 56.6863 218.941 60 218.941Z" fill="#1BBF6A"/>
<path d="M46 236.941C46 229.209 52.268 222.941 60 222.941C67.732 222.941 74 229.209 74 236.941H46Z" fill="#1BBF6A"/>
<path d="M100 218.941C103.314 218.941 106 216.255 106 212.941C106 209.628 103.314 206.941 100 206.941C96.6863 206.941 94 209.628 94 212.941C94 216.255 96.6863 218.941 100 218.941Z" fill="#1BBF6A"/>
<path d="M86 236.941C86 229.209 92.268 222.941 100 222.941C107.732 222.941 114 229.209 114 236.941H86Z" fill="#1BBF6A"/>
<path d="M140 218.941C143.314 218.941 146 216.255 146 212.941C146 209.628 143.314 206.941 140 206.941C136.686 206.941 134 209.628 134 212.941C134 216.255 136.686 218.941 140 218.941Z" fill="#1BBF6A"/>
<path d="M126 236.941C126 229.209 132.268 222.941 140 222.941C147.732 222.941 154 229.209 154 236.941H126Z" fill="#1BBF6A"/>
<path d="M180 218.941C183.314 218.941 186 216.255 186 212.941C186 209.628 183.314 206.941 180 206.941C176.686 206.941 174 209.628 174 212.941C174 216.255 176.686 218.941 180 218.941Z" fill="#1BBF6A"/>
<path d="M166 236.941C166 229.209 172.268 222.941 180 222.941C187.732 222.941 194 229.209 194 236.941H166Z" fill="#1BBF6A"/>
<path d="M220 218.941C223.314 218.941 226 216.255 226 212.941C226 209.628 223.314 206.941 220 206.941C216.686 206.941 214 209.628 214 212.941C214 216.255 216.686 218.941 220 218.941Z" fill="#1BBF6A"/>
<path d="M206 236.941C206 229.209 212.268 222.941 220 222.941C227.732 222.941 234 229.209 234 236.941H206Z" fill="#1BBF6A"/>
<path d="M260 218.941C263.314 218.941 266 216.255 266 212.941C266 209.628 263.314 206.941 260 206.941C256.686 206.941 254 209.628 254 212.941C254 216.255 256.686 218.941 260 218.941Z" fill="#1BBF6A"/>
<path d="M246 236.941C246 229.209 252.268 222.941 260 222.941C267.732 222.941 274 229.209 274 236.941H246Z" fill="#1BBF6A"/>
<path d="M300 218.941C303.314 218.941 306 216.255 306 212.941C306 209.628 303.314 206.941 300 206.941C296.686 206.941 294 209.628 294 212.941C294 216.255 296.686 218.941 300 218.941Z" fill="#1BBF6A"/>
<path d="M286 236.941C286 229.209 292.268 222.941 300 222.941C307.732 222.941 314 229.209 314 236.941H286Z" fill="#1BBF6A"/>
<path d="M340 218.941C343.314 218.941 346 216.255 346 212.941C346 209.628 343.314 206.941 340 206.941C336.686 206.941 334 209.628 334 212.941C334 216.255 336.686 218.941 340 218.941Z" fill="#1BBF6A"/>
<path d="M326 236.941C326 229.209 332.268 222.941 340 222.941C347.732 222.941 354 229.209 354 236.941H326Z" fill="#1BBF6A"/>
<path d="M380 218.941C383.314 218.941 386 216.255 386 212.941C386 209.628 383.314 206.941 380 206.941C376.686 206.941 374 209.628 374 212.941C374 216.255 376.686 218.941 380 218.941Z" fill="#1BBF6A"/>
<path d="M366 236.941C366 229.209 372.268 222.941 380 222.941C387.732 222.941 394 229.209 394 236.941H366Z" fill="#1BBF6A"/>
<path d="M20 258.941C23.3137 258.941 26 256.255 26 252.941C26 249.628 23.3137 246.941 20 246.941C16.6863 246.941 14 249.628 14 252.941C14 256.255 16.6863 258.941 20 258.941Z" fill="#1BBF6A"/>
<path d="M6 276.941C6 269.209 12.268 262.941 20 262.941C27.732 262.941 34 269.209 34 276.941H6Z" fill="#1BBF6A"/>
<path d="M60 258.941C63.3137 258.941 66 256.255 66 252.941C66 249.628 63.3137 246.941 60 246.941C56.6863 246.941 54 249.628 54 252.941C54 256.255 56.6863 258.941 60 258.941Z" fill="#1BBF6A"/>
<path d="M46 276.941C46 269.209 52.268 262.941 60 262.941C67.732 262.941 74 269.209 74 276.941H46Z" fill="#1BBF6A"/>
<path d="M100 258.941C103.314 258.941 106 256.255 106 252.941C106 249.628 103.314 246.941 100 246.941C96.6863 246.941 94 249.628 94 252.941C94 256.255 96.6863 258.941 100 258.941Z" fill="#1BBF6A"/>
<path d="M86 276.941C86 269.209 92.268 262.941 100 262.941C107.732 262.941 114 269.209 114 276.941H86Z" fill="#1BBF6A"/>
<path d="M140 258.941C143.314 258.941 146 256.255 146 252.941C146 249.628 143.314 246.941 140 246.941C136.686 246.941 134 249.628 134 252.941C134 256.255 136.686 258.941 140 258.941Z" fill="#1BBF6A"/>
<path d="M126 276.941C126 269.209 132.268 262.941 140 262.941C147.732 262.941 154 269.209 154 276.941H126Z" fill="#1BBF6A"/>
<path d="M180 258.941C183.314 258.941 186 256.255 186 252.941C186 249.628 183.314 246.941 180 246.941C176.686 246.941 174 249.628 174 252.941C174 256.255 176.686 258.941 180 258.941Z" fill="#1BBF6A"/>
<path d="M166 276.941C166 269.209 172.268 262.941 180 262.941C187.732 262.941 194 269.209 194 276.941H166Z" fill="#1BBF6A"/>
<path d="M220 258.941C223.314 258.941 226 256.255 226 252.941C226 249.628 223.314 246.941 220 246.941C216.686 246.941 214 249.628 214 252.941C214 256.255 216.686 258.941 220 258.941Z" fill="#1BBF6A"/>
<path d="M206 276.941C206 269.209 212.268 262.941 220 262.941C227.732 262.941 234 269.209 234 276.941H206Z" fill="#1BBF6A"/>
<path d="M260 258.941C263.314 258.941 266 256.255 266 252.941C266 249.628 263.314 246.941 260 246.941C256.686 246.941 254 249.628 254 252.941C254 256.255 256.686 258.941 260 258.941Z" fill="#1BBF6A"/>
<path d="M246 276.941C246 269.209 252.268 262.941 260 262.941C267.732 262.941 274 269.209 274 276.941H246Z" fill="#1BBF6A"/>
<path d="M300 258.941C303.314 258.941 306 256.255 306 252.941C306 249.628 303.314 246.941 300 246.941C296.686 246.941 294 249.628 294 252.941C294 256.255 296.686 258.941 300 258.941Z" fill="#1BBF6A"/>
<path d="M286 276.941C286 269.209 292.268 262.941 300 262.941C307.732 262.941 314 269.209 314 276.941H286Z" fill="#1BBF6A"/>
<path d="M340 258.941C343.314 258.941 346 256.255 346 252.941C346 249.628 343.314 246.941 340 246.941C336.686 246.941 334 249.628 334 252.941C334 256.255 336.686 258.941 340 258.941Z" fill="#1BBF6A"/>
<path d="M326 276.941C326 269.209 332.268 262.941 340 262.941C347.732 262.941 354 269.209 354 276.941H326Z" fill="#1BBF6A"/>
<path d="M380 258.941C383.314 258.941 386 256.255 386 252.941C386 249.628 383.314 246.941 380 246.941C376.686 246.941 374 249.628 374 252.941C374 256.255 376.686 258.941 380 258.941Z" fill="#1BBF6A"/>
<path d="M366 276.941C366 269.209 372.268 262.941 380 262.941C387.732 262.941 394 269.209 394 276.941H366Z" fill="#1BBF6A"/>
<path d="M20 298.941C23.3137 298.941 26 296.255 26 292.941C26 289.628 23.3137 286.941 20 286.941C16.6863 286.941 14 289.628 14 292.941C14 296.255 16.6863 298.941 20 298.941Z" fill="#1BBF6A"/>
<path d="M6 316.941C6 309.209 12.268 302.941 20 302.941C27.732 302.941 34 309.209 34 316.941H6Z" fill="#1BBF6A"/>
<path d="M60 298.941C63.3137 298.941 66 296.255 66 292.941C66 289.628 63.3137 286.941 60 286.941C56.6863 286.941 54 289.628 54 292.941C54 296.255 56.6863 298.941 60 298.941Z" fill="#1BBF6A"/>
<path d="M46 316.941C46 309.209 52.268 302.941 60 302.941C67.732 302.941 74 309.209 74 316.941H46Z" fill="#1BBF6A"/>
<path d="M100 298.941C103.314 298.941 106 296.255 106 292.941C106 289.628 103.314 286.941 100 286.941C96.6863 286.941 94 289.628 94 292.941C94 296.255 96.6863 298.941 100 298.941Z" fill="#1BBF6A"/>
<path d="M86 316.941C86 309.209 92.268 302.941 100 302.941C107.732 302.941 114 309.209 114 316.941H86Z" fill="#1BBF6A"/>
<path d="M140 298.941C143.314 298.941 146 296.255 146 292.941C146 289.628 143.314 286.941 140 286.941C136.686 286.941 134 289.628 134 292.941C134 296.255 136.686 298.941 140 298.941Z" fill="#1BBF6A"/>
<path d="M126 316.941C126 309.209 132.268 302.941 140 302.941C147.732 302.941 154 309.209 154 316.941H126Z" fill="#1BBF6A"/>
<path d="M180 298.941C183.314 298.941 186 296.255 186 292.941C186 289.628 183.314 286.941 180 286.941C176.686 286.941 174 289.628 174 292.941C174 296.255 176.686 298.941 180 298.941Z" fill="#1BBF6A"/>
<path d="M166 316.941C166 309.209 172.268 302.941 180 302.941C187.732 302.941 194 309.209 194 316.941H166Z" fill="#1BBF6A"/>
<path d="M220 298.941C223.314 298.941 226 296.255 226 292.941C226 289.628 223.314 286.941 220 286.941C216.686 286.941 214 289.628 214 292.941C214 296.255 216.686 298.941 220 298.941Z" fill="#1BBF6A"/>
<path d="M206 316.941C206 309.209 212.268 302.941 220 302.941C227.732 302.941 234 309.209 234 316.941H206Z" fill="#1BBF6A"/>
<path d="M260 298.941C263.314 298.941 266 296.255 266 292.941C266 289.628 263.314 286.941 260 286.941C256.686 286.941 254 289.628 254 292.941C254 296.255 256.686 298.941 260 298.941Z" fill="#1BBF6A"/>
<path d="M246 316.941C246 309.209 252.268 302.941 260 302.941C267.732 302.941 274 309.209 274 316.941H246Z" fill="#1BBF6A"/>
<path d="M300 298.941C303.314 298.941 306 296.255 306 292.941C306 289.628 303.314 286.941 300 286.941C296.686 286.941 294 289.628 294 292.941C294 296.255 296.686 298.941 300 298.941Z" fill="#1BBF6A"/>
<path d="M286 316.941C286 309.209 292.268 302.941 300 302.941C307.732 302.941 314 309.209 314 316.941H286Z" fill="#1BBF6A"/>
<path d="M340 298.941C343.314 298.941 346 296.255 346 292.941C346 289.628 343.314 286.941 340 286.941C336.686 286.941 334 289.628 334 292.941C334 296.255 336.686 298.941 340 298.941Z" fill="#1BBF6A"/>
<path d="M326 316.941C326 309.209 332.268 302.941 340 302.941C347.732 302.941 354 309.209 354 316.941H326Z" fill="#1BBF6A"/>
<path d="M380 298.941C383.314 298.941 386 296.255 386 292.941C386 289.628 383.314 286.941 380 286.941C376.686 286.941 374 289.628 374 292.941C374 296.255 376.686 298.941 380 298.941Z" fill="#1BBF6A"/>
<path d="M366 316.941C366 309.209 372.268 302.941 380 302.941C387.732 302.941 394 309.209 394 316.941H366Z" fill="#1BBF6A"/>
<path d="M20 338.941C23.3137 338.941 26 336.255 26 332.941C26 329.628 23.3137 326.941 20 326.941C16.6863 326.941 14 329.628 14 332.941C14 336.255 16.6863 338.941 20 338.941Z" fill="#1BBF6A"/>
<path d="M6 356.941C6 349.209 12.268 342.941 20 342.941C27.732 342.941 34 349.209 34 356.941H6Z" fill="#1BBF6A"/>
<path d="M60 338.941C63.3137 338.941 66 336.255 66 332.941C66 329.628 63.3137 326.941 60 326.941C56.6863 326.941 54 329.628 54 332.941C54 336.255 56.6863 338.941 60 338.941Z" fill="#1BBF6A"/>
<path d="M46 356.941C46 349.209 52.268 342.941 60 342.941C67.732 342.941 74 349.209 74 356.941H46Z" fill="#1BBF6A"/>
<path d="M100 338.941C103.314 338.941 106 336.255 106 332.941C106 329.628 103.314 326.941 100 326.941C96.6863 326.941 94 329.628 94 332.941C94 336.255 96.6863 338.941 100 338.941Z" fill="#1BBF6A"/>
<path d="M86 356.941C86 349.209 92.268 342.941 100 342.941C107.732 342.941 114 349.209 114 356.941H86Z" fill="#1BBF6A"/>
<path d="M140 338.941C143.314 338.941 146 336.255 146 332.941C146 329.628 143.314 326.941 140 326.941C136.686 326.941 134 329.628 134 332.941C134 336.255 136.686 338.941 140 338.941Z" fill="#1BBF6A"/>
<path d="M126 356.941C126 349.209 132.268 342.941 140 342.941C147.732 342.941 154 349.209 154 356.941H126Z" fill="#1BBF6A"/>
<path d="M180 338.941C183.314 338.941 186 336.255 186 332.941C186 329.628 183.314 326.941 180 326.941C176.686 326.941 174 329.628 174 332.941C174 336.255 176.686 338.941 180 338.941Z" fill="#1BBF6A"/>
<path d="M166 356.941C166 349.209 172.268 342.941 180 342.941C187.732 342.941 194 349.209 194 356.941H166Z" fill="#1BBF6A"/>
<path d="M220 338.941C223.314 338.941 226 336.255 226 332.941C226 329.628 223.314 326.941 220 326.941C216.686 326.941 214 329.628 214 332.941C214 336.255 216.686 338.941 220 338.941Z" fill="#1BBF6A"/>
<path d="M206 356.941C206 349.209 212.268 342.941 220 342.941C227.732 342.941 234 349.209 234 356.941H206Z" fill="#1BBF6A"/>
<path d="M260 338.941C263.314 338.941 266 336.255 266 332.941C266 329.628 263.314 326.941 260 326.941C256.686 326.941 254 329.628 254 332.941C254 336.255 256.686 338.941 260 338.941Z" fill="#1BBF6A"/>
<path d="M246 356.941C246 349.209 252.268 342.941 260 342.941C267.732 342.941 274 349.209 274 356.941H246Z" fill="#1BBF6A"/>
<path d="M300 338.941C303.314 338.941 306 336.255 306 332.941C306 329.628 303.314 326.941 300 326.941C296.686 326.941 294 329.628 294 332.941C294 336.255 296.686 338.941 300 338.941Z" fill="#1BBF6A"/>
<path d="M286 356.941C286 349.209 292.268 342.941 300 342.941C307.732 342.941 314 349.209 314 356.941H286Z" fill="#1BBF6A"/>
<path d="M340 338.941C343.314 338.941 346 336.255 346 332.941C346 329.628 343.314 326.941 340 326.941C336.686 326.941 334 329.628 334 332.941C334 336.255 336.686 338.941 340 338.941Z" fill="#1BBF6A"/>
<path d="M326 356.941C326 349.209 332.268 342.941 340 342.941C347.732 342.941 354 349.209 354 356.941H326Z" fill="#1BBF6A"/>
<path d="M380 338.941C383.314 338.941 386 336.255 386 332.941C386 329.628 383.314 326.941 380 326.941C376.686 326.941 374 329.628 374 332.941C374 336.255 376.686 338.941 380 338.941Z" fill="#1BBF6A"/>
<path d="M366 356.941C366 349.209 372.268 342.941 380 342.941C387.732 342.941 394 349.209 394 356.941H366Z" fill="#1BBF6A"/>
<path d="M20 378.941C23.3137 378.941 26 376.255 26 372.941C26 369.628 23.3137 366.941 20 366.941C16.6863 366.941 14 369.628 14 372.941C14 376.255 16.6863 378.941 20 378.941Z" fill="#1BBF6A"/>
<path d="M6 396.941C6 389.209 12.268 382.941 20 382.941C27.732 382.941 34 389.209 34 396.941H6Z" fill="#1BBF6A"/>
<path d="M60 378.941C63.3137 378.941 66 376.255 66 372.941C66 369.628 63.3137 366.941 60 366.941C56.6863 366.941 54 369.628 54 372.941C54 376.255 56.6863 378.941 60 378.941Z" fill="#1BBF6A"/>
<path d="M46 396.941C46 389.209 52.268 382.941 60 382.941C67.732 382.941 74 389.209 74 396.941H46Z" fill="#1BBF6A"/>
<path d="M100 378.941C103.314 378.941 106 376.255 106 372.941C106 369.628 103.314 366.941 100 366.941C96.6863 366.941 94 369.628 94 372.941C94 376.255 96.6863 378.941 100 378.941Z" fill="#1BBF6A"/>
<path d="M86 396.941C86 389.209 92.268 382.941 100 382.941C107.732 382.941 114 389.209 114 396.941H86Z" fill="#1BBF6A"/>
<path d="M140 378.941C143.314 378.941 146 376.255 146 372.941C146 369.628 143.314 366.941 140 366.941C136.686 366.941 134 369.628 134 372.941C134 376.255 136.686 378.941 140 378.941Z" fill="#1BBF6A"/>
<path d="M126 396.941C126 389.209 132.268 382.941 140 382.941C147.732 382.941 154 389.209 154 396.941H126Z" fill="#1BBF6A"/>
<path d="M180 378.941C183.314 378.941 186 376.255 186 372.941C186 369.628 183.314 366.941 180 366.941C176.686 366.941 174 369.628 174 372.941C174 376.255 176.686 378.941 180 378.941Z" fill="#1BBF6A"/>
<path d="M166 396.941C166 389.209 172.268 382.941 180 382.941C187.732 382.941 194 389.209 194 396.941H166Z" fill="#1BBF6A"/>
<path d="M220 378.941C223.314 378.941 226 376.255 226 372.941C226 369.628 223.314 366.941 220 366.941C216.686 366.941 214 369.628 214 372.941C214 376.255 216.686 378.941 220 378.941Z" fill="#1BBF6A"/>
<path d="M206 396.941C206 389.209 212.268 382.941 220 382.941C227.732 382.941 234 389.209 234 396.941H206Z" fill="#1BBF6A"/>
<path d="M260 378.941C263.314 378.941 266 376.255 266 372.941C266 369.628 263.314 366.941 260 366.941C256.686 366.941 254 369.628 254 372.941C254 376.255 256.686 378.941 260 378.941Z" fill="#1BBF6A"/>
<path d="M246 396.941C246 389.209 252.268 382.941 260 382.941C267.732 382.941 274 389.209 274 396.941H246Z" fill="#1BBF6A"/>
<path d="M300 378.941C303.314 378.941 306 376.255 306 372.941C306 369.628 303.314 366.941 300 366.941C296.686 366.941 294 369.628 294 372.941C294 376.255 296.686 378.941 300 378.941Z" fill="#1BBF6A"/>
<path d="M286 396.941C286 389.209 292.268 382.941 300 382.941C307.732 382.941 314 389.209 314 396.941H286Z" fill="#1BBF6A"/>
<path d="M340 378.941C343.314 378.941 346 376.255 346 372.941C346 369.628 343.314 366.941 340 366.941C336.686 366.941 334 369.628 334 372.941C334 376.255 336.686 378.941 340 378.941Z" fill="#1BBF6A"/>
<path d="M326 396.941C326 389.209 332.268 382.941 340 382.941C347.732 382.941 354 389.209 354 396.941H326Z" fill="#1BBF6A"/>
<path d="M380 378.941C383.314 378.941 386 376.255 386 372.941C386 369.628 383.314 366.941 380 366.941C376.686 366.941 374 369.628 374 372.941C374 376.255 376.686 378.941 380 378.941Z" fill="#1BBF6A"/>
<path d="M366 396.941C366 389.209 372.268 382.941 380 382.941C387.732 382.941 394 389.209 394 396.941H366Z" fill="#1BBF6A"/>
<path d="M29.6129 437.941V426.021H31.6929L36.1569 432.085H35.1649L39.5329 426.021H41.6129V437.941H39.4209V428.501L40.2689 428.709L35.7409 434.741H35.4849L31.0689 428.709L31.7889 428.501V437.941H29.6129ZM46.8222 438.133C46.1502 438.133 45.5635 437.984 45.0622 437.685C44.5715 437.387 44.1929 436.971 43.9262 436.437C43.6702 435.904 43.5422 435.28 43.5422 434.565V429.237H45.6382V434.389C45.6382 434.752 45.7075 435.072 45.8462 435.349C45.9955 435.616 46.2035 435.829 46.4702 435.989C46.7475 436.139 47.0569 436.213 47.3982 436.213C47.7395 436.213 48.0435 436.139 48.3102 435.989C48.5769 435.829 48.7849 435.611 48.9342 435.333C49.0835 435.056 49.1582 434.725 49.1582 434.341V429.237H51.2542V437.941H49.2702V436.229L49.4462 436.533C49.2435 437.067 48.9075 437.467 48.4382 437.733C47.9795 438 47.4409 438.133 46.8222 438.133ZM53.2026 437.941V425.829H55.2986V437.941H53.2026ZM57.2338 437.941V425.829H59.3298V430.949L59.0418 430.645C59.2445 430.123 59.5751 429.728 60.0338 429.461C60.5031 429.184 61.0471 429.045 61.6658 429.045C62.3058 429.045 62.8711 429.184 63.3618 429.461C63.8631 429.739 64.2525 430.128 64.5298 430.629C64.8071 431.12 64.9458 431.691 64.9458 432.341V437.941H62.8498V432.837C62.8498 432.453 62.7751 432.123 62.6258 431.845C62.4765 431.568 62.2685 431.355 62.0018 431.205C61.7458 431.045 61.4418 430.965 61.0898 430.965C60.7485 430.965 60.4445 431.045 60.1778 431.205C59.9111 431.355 59.7031 431.568 59.5538 431.845C59.4045 432.123 59.3298 432.453 59.3298 432.837V437.941H57.2338ZM70.8462 438.133C69.9502 438.133 69.1662 437.931 68.4942 437.525C67.8222 437.12 67.2995 436.571 66.9262 435.877C66.5529 435.184 66.3662 434.416 66.3662 433.573C66.3662 432.699 66.5529 431.925 66.9262 431.253C67.3102 430.571 67.8275 430.032 68.4782 429.637C69.1395 429.243 69.8755 429.045 70.6862 429.045C71.3689 429.045 71.9662 429.157 72.4782 429.381C73.0009 429.605 73.4435 429.915 73.8062 430.309C74.1689 430.704 74.4462 431.157 74.6382 431.669C74.8302 432.171 74.9262 432.715 74.9262 433.301C74.9262 433.451 74.9155 433.605 74.8942 433.765C74.8835 433.925 74.8569 434.064 74.8142 434.181H68.0942V432.581H73.6302L72.6382 433.333C72.7342 432.843 72.7075 432.405 72.5582 432.021C72.4195 431.637 72.1849 431.333 71.8542 431.109C71.5342 430.885 71.1449 430.773 70.6862 430.773C70.2489 430.773 69.8595 430.885 69.5182 431.109C69.1769 431.323 68.9155 431.643 68.7342 432.069C68.5635 432.485 68.4995 432.992 68.5422 433.589C68.4995 434.123 68.5689 434.597 68.7502 435.013C68.9422 435.419 69.2195 435.733 69.5822 435.957C69.9555 436.181 70.3822 436.293 70.8622 436.293C71.3422 436.293 71.7475 436.192 72.0782 435.989C72.4195 435.787 72.6862 435.515 72.8782 435.173L74.5742 436.005C74.4035 436.421 74.1369 436.789 73.7742 437.109C73.4115 437.429 72.9795 437.68 72.4782 437.861C71.9875 438.043 71.4435 438.133 70.8462 438.133ZM76.5151 437.941V429.237H78.4831V431.173L78.3231 430.885C78.5257 430.235 78.8404 429.781 79.2671 429.525C79.7044 429.269 80.2271 429.141 80.8351 429.141H81.3471V430.997H80.5951C79.9977 430.997 79.5177 431.184 79.1551 431.557C78.7924 431.92 78.6111 432.432 78.6111 433.093V437.941H76.5151ZM86.6274 438.133C85.7314 438.133 84.9474 437.931 84.2754 437.525C83.6034 437.12 83.0808 436.571 82.7074 435.877C82.3341 435.184 82.1474 434.416 82.1474 433.573C82.1474 432.699 82.3341 431.925 82.7074 431.253C83.0914 430.571 83.6088 430.032 84.2594 429.637C84.9208 429.243 85.6568 429.045 86.4674 429.045C87.1501 429.045 87.7474 429.157 88.2594 429.381C88.7821 429.605 89.2248 429.915 89.5874 430.309C89.9501 430.704 90.2274 431.157 90.4194 431.669C90.6114 432.171 90.7074 432.715 90.7074 433.301C90.7074 433.451 90.6968 433.605 90.6754 433.765C90.6648 433.925 90.6381 434.064 90.5954 434.181H83.8754V432.581H89.4114L88.4194 433.333C88.5154 432.843 88.4888 432.405 88.3394 432.021C88.2008 431.637 87.9661 431.333 87.6354 431.109C87.3154 430.885 86.9261 430.773 86.4674 430.773C86.0301 430.773 85.6408 430.885 85.2994 431.109C84.9581 431.323 84.6968 431.643 84.5154 432.069C84.3448 432.485 84.2808 432.992 84.3234 433.589C84.2808 434.123 84.3501 434.597 84.5314 435.013C84.7234 435.419 85.0008 435.733 85.3634 435.957C85.7368 436.181 86.1634 436.293 86.6434 436.293C87.1234 436.293 87.5288 436.192 87.8594 435.989C88.2008 435.787 88.4674 435.515 88.6594 435.173L90.3554 436.005C90.1848 436.421 89.9181 436.789 89.5554 437.109C89.1928 437.429 88.7608 437.68 88.2594 437.861C87.7688 438.043 87.2248 438.133 86.6274 438.133ZM95.6083 438.133C94.6803 438.133 93.8696 437.915 93.1763 437.477C92.4936 437.029 92.0243 436.427 91.7683 435.669L93.3363 434.917C93.5603 435.408 93.8696 435.792 94.2643 436.069C94.6696 436.347 95.1176 436.485 95.6083 436.485C95.9923 436.485 96.2963 436.4 96.5203 436.229C96.7443 436.059 96.8563 435.835 96.8563 435.557C96.8563 435.387 96.8083 435.248 96.7123 435.141C96.627 435.024 96.5043 434.928 96.3443 434.853C96.195 434.768 96.0296 434.699 95.8483 434.645L94.4243 434.245C93.6883 434.032 93.1283 433.707 92.7443 433.269C92.371 432.832 92.1843 432.315 92.1843 431.717C92.1843 431.184 92.3176 430.72 92.5843 430.325C92.8616 429.92 93.2403 429.605 93.7203 429.381C94.211 429.157 94.771 429.045 95.4003 429.045C96.2216 429.045 96.947 429.243 97.5763 429.637C98.2056 430.032 98.6536 430.587 98.9203 431.301L97.3203 432.053C97.171 431.659 96.9203 431.344 96.5683 431.109C96.2163 430.875 95.8216 430.757 95.3843 430.757C95.0323 430.757 94.755 430.837 94.5523 430.997C94.3496 431.157 94.2483 431.365 94.2483 431.621C94.2483 431.781 94.291 431.92 94.3763 432.037C94.4616 432.155 94.579 432.251 94.7283 432.325C94.8883 432.4 95.0696 432.469 95.2723 432.533L96.6643 432.949C97.379 433.163 97.9283 433.483 98.3123 433.909C98.707 434.336 98.9043 434.859 98.9043 435.477C98.9043 436 98.7656 436.464 98.4883 436.869C98.211 437.264 97.827 437.573 97.3363 437.797C96.8456 438.021 96.2696 438.133 95.6083 438.133Z" fill="#646464"/>
<path d="M35.2918 456.861V454.653L40.3478 447.421H43.4038V454.493H44.7158V456.861H43.4038V458.941H40.6678V456.861H35.2918ZM40.8598 450.429L38.1718 454.493H40.8598V450.429ZM46.1519 450.557C46.1946 449.416 46.5679 448.536 47.2719 447.917C47.9759 447.299 48.9306 446.989 50.1359 446.989C50.9359 446.989 51.6186 447.128 52.1839 447.405C52.7599 447.683 53.1919 448.061 53.4799 448.541C53.7786 449.021 53.9279 449.56 53.9279 450.157C53.9279 450.861 53.7519 451.437 53.3999 451.885C53.0479 452.323 52.6373 452.621 52.1679 452.781V452.845C52.7759 453.048 53.2559 453.384 53.6079 453.853C53.9599 454.323 54.1359 454.925 54.1359 455.661C54.1359 456.323 53.9813 456.909 53.6719 457.421C53.3733 457.923 52.9306 458.317 52.3439 458.605C51.7679 458.893 51.0799 459.037 50.2799 459.037C48.9999 459.037 47.9759 458.723 47.2079 458.093C46.4506 457.464 46.0506 456.515 46.0079 455.245H48.6639C48.6746 455.715 48.8079 456.088 49.0639 456.365C49.3199 456.632 49.6933 456.765 50.1839 456.765C50.5999 456.765 50.9199 456.648 51.1439 456.413C51.3786 456.168 51.4959 455.848 51.4959 455.453C51.4959 454.941 51.3306 454.573 50.9999 454.349C50.6799 454.115 50.1626 453.997 49.4479 453.997H48.9359V451.773H49.4479C49.9919 451.773 50.4293 451.683 50.7599 451.501C51.1013 451.309 51.2719 450.973 51.2719 450.493C51.2719 450.109 51.1653 449.811 50.9519 449.597C50.7386 449.384 50.4453 449.277 50.0719 449.277C49.6666 449.277 49.3626 449.4 49.1599 449.645C48.9679 449.891 48.8559 450.195 48.8239 450.557H46.1519ZM57.2954 459.069C56.8154 459.069 56.4208 458.931 56.1114 458.653C55.8128 458.365 55.6634 458.013 55.6634 457.597C55.6634 457.171 55.8128 456.813 56.1114 456.525C56.4208 456.237 56.8154 456.093 57.2954 456.093C57.7648 456.093 58.1488 456.237 58.4474 456.525C58.7568 456.813 58.9114 457.171 58.9114 457.597C58.9114 458.013 58.7568 458.365 58.4474 458.653C58.1488 458.931 57.7648 459.069 57.2954 459.069ZM66.0351 450.413C65.9497 450.019 65.8004 449.725 65.5871 449.533C65.3737 449.331 65.0697 449.229 64.6751 449.229C64.0671 449.229 63.6297 449.496 63.3631 450.029C63.0964 450.552 62.9577 451.384 62.9471 452.525C63.1817 452.152 63.5177 451.859 63.9551 451.645C64.4031 451.432 64.8937 451.325 65.4271 451.325C66.4724 451.325 67.3097 451.656 67.9391 452.317C68.5791 452.979 68.8991 453.901 68.8991 455.085C68.8991 455.864 68.7391 456.547 68.4191 457.133C68.1097 457.72 67.6511 458.179 67.0431 458.509C66.4457 458.84 65.7364 459.005 64.9151 459.005C63.2724 459.005 62.1311 458.493 61.4911 457.469C60.8511 456.435 60.5311 454.952 60.5311 453.021C60.5311 450.995 60.8671 449.491 61.5391 448.509C62.2217 447.517 63.3097 447.021 64.8031 447.021C65.6031 447.021 66.2751 447.181 66.8191 447.501C67.3737 447.811 67.7897 448.221 68.0671 448.733C68.3551 449.245 68.5257 449.805 68.5791 450.413H66.0351ZM64.7711 453.485C64.3124 453.485 63.9284 453.624 63.6191 453.901C63.3204 454.168 63.1711 454.552 63.1711 455.053C63.1711 455.565 63.3097 455.965 63.5871 456.253C63.8751 456.541 64.2804 456.685 64.8031 456.685C65.2724 456.685 65.6404 456.547 65.9071 456.269C66.1844 455.981 66.3231 455.592 66.3231 455.101C66.3231 454.6 66.1897 454.205 65.9231 453.917C65.6564 453.629 65.2724 453.485 64.7711 453.485ZM73.3906 455.517C73.5506 456.36 74.0412 456.781 74.8626 456.781C75.4279 456.781 75.8279 456.531 76.0626 456.029C76.2972 455.528 76.4146 454.712 76.4146 453.581C76.1799 453.912 75.8599 454.168 75.4546 454.349C75.0492 454.531 74.5959 454.621 74.0946 454.621C73.4119 454.621 72.8039 454.483 72.2706 454.205C71.7372 453.917 71.3159 453.496 71.0066 452.941C70.7079 452.376 70.5586 451.693 70.5586 450.893C70.5586 450.104 70.7186 449.416 71.0386 448.829C71.3692 448.243 71.8332 447.789 72.4306 447.469C73.0386 447.149 73.7532 446.989 74.5746 446.989C76.1532 446.989 77.2572 447.48 77.8866 448.461C78.5159 449.443 78.8306 450.888 78.8306 452.797C78.8306 454.184 78.7026 455.331 78.4466 456.237C78.2012 457.133 77.7799 457.816 77.1826 458.285C76.5959 458.755 75.7906 458.989 74.7666 458.989C73.9559 458.989 73.2626 458.829 72.6866 458.509C72.1212 458.189 71.6839 457.768 71.3746 457.245C71.0759 456.723 70.9052 456.147 70.8626 455.517H73.3906ZM74.7186 452.461C75.1666 452.461 75.5239 452.328 75.7906 452.061C76.0572 451.784 76.1906 451.411 76.1906 450.941C76.1906 450.429 76.0519 450.035 75.7746 449.757C75.4972 449.48 75.1239 449.341 74.6546 449.341C74.1852 449.341 73.8119 449.485 73.5346 449.773C73.2679 450.051 73.1346 450.435 73.1346 450.925C73.1346 451.384 73.2679 451.757 73.5346 452.045C73.8119 452.323 74.2066 452.461 74.7186 452.461ZM80.0663 450.205C80.0663 449.341 80.3116 448.675 80.8023 448.205C81.3036 447.736 81.949 447.501 82.7383 447.501C83.5276 447.501 84.1676 447.736 84.6583 448.205C85.149 448.675 85.3943 449.341 85.3943 450.205C85.3943 451.069 85.149 451.736 84.6583 452.205C84.1676 452.675 83.5276 452.909 82.7383 452.909C81.949 452.909 81.3036 452.675 80.8023 452.205C80.3116 451.736 80.0663 451.069 80.0663 450.205ZM90.9303 447.677L84.7703 458.941H82.1303L88.2903 447.677H90.9303ZM82.7223 449.101C82.2103 449.101 81.9543 449.469 81.9543 450.205C81.9543 450.931 82.2103 451.293 82.7223 451.293C82.9676 451.293 83.1596 451.203 83.2983 451.021C83.437 450.84 83.5063 450.568 83.5063 450.205C83.5063 449.469 83.245 449.101 82.7223 449.101ZM87.6823 456.413C87.6823 455.549 87.9276 454.883 88.4183 454.413C88.909 453.944 89.549 453.709 90.3383 453.709C91.1276 453.709 91.7676 453.944 92.2583 454.413C92.749 454.883 92.9943 455.549 92.9943 456.413C92.9943 457.277 92.749 457.944 92.2583 458.413C91.7676 458.883 91.1276 459.117 90.3383 459.117C89.549 459.117 88.909 458.883 88.4183 458.413C87.9276 457.944 87.6823 457.277 87.6823 456.413ZM90.3223 455.309C90.077 455.309 89.885 455.4 89.7463 455.581C89.6183 455.763 89.5543 456.04 89.5543 456.413C89.5543 457.139 89.8103 457.501 90.3223 457.501C90.5676 457.501 90.7596 457.411 90.8983 457.229C91.037 457.048 91.1063 456.776 91.1063 456.413C91.1063 456.051 91.037 455.779 90.8983 455.597C90.7596 455.405 90.5676 455.309 90.3223 455.309Z" fill="#646464"/>
<circle cx="8" cy="439.941" r="8" fill="#017B3C"/>
<path d="M200.925 437.941V426.021H203.101V431.221H208.173V426.021H210.365V437.941H208.173V433.141H203.101V437.941H200.925ZM216.74 438.133C215.886 438.133 215.108 437.936 214.404 437.541C213.71 437.147 213.156 436.608 212.74 435.925C212.334 435.243 212.132 434.464 212.132 433.589C212.132 432.715 212.334 431.936 212.74 431.253C213.156 430.571 213.71 430.032 214.404 429.637C215.097 429.243 215.876 429.045 216.74 429.045C217.593 429.045 218.366 429.243 219.06 429.637C219.753 430.032 220.302 430.571 220.708 431.253C221.124 431.925 221.332 432.704 221.332 433.589C221.332 434.464 221.124 435.243 220.708 435.925C220.292 436.608 219.737 437.147 219.044 437.541C218.35 437.936 217.582 438.133 216.74 438.133ZM216.74 436.213C217.209 436.213 217.62 436.101 217.972 435.877C218.334 435.653 218.617 435.344 218.82 434.949C219.033 434.544 219.14 434.091 219.14 433.589C219.14 433.077 219.033 432.629 218.82 432.245C218.617 431.851 218.334 431.541 217.972 431.317C217.62 431.083 217.209 430.965 216.74 430.965C216.26 430.965 215.838 431.083 215.476 431.317C215.113 431.541 214.825 431.851 214.612 432.245C214.409 432.629 214.308 433.077 214.308 433.589C214.308 434.091 214.409 434.544 214.612 434.949C214.825 435.344 215.113 435.653 215.476 435.877C215.838 436.101 216.26 436.213 216.74 436.213ZM222.921 437.941V429.237H224.889V431.253L224.665 430.917C224.825 430.288 225.145 429.819 225.625 429.509C226.105 429.2 226.671 429.045 227.321 429.045C228.036 429.045 228.665 429.232 229.209 429.605C229.753 429.979 230.105 430.469 230.265 431.077L229.673 431.125C229.94 430.432 230.34 429.915 230.873 429.573C231.407 429.221 232.02 429.045 232.713 429.045C233.332 429.045 233.881 429.184 234.361 429.461C234.852 429.739 235.236 430.128 235.513 430.629C235.791 431.12 235.929 431.691 235.929 432.341V437.941H233.833V432.837C233.833 432.453 233.764 432.123 233.625 431.845C233.487 431.568 233.295 431.355 233.049 431.205C232.804 431.045 232.505 430.965 232.153 430.965C231.823 430.965 231.529 431.045 231.273 431.205C231.017 431.355 230.82 431.568 230.681 431.845C230.543 432.123 230.473 432.453 230.473 432.837V437.941H228.377V432.837C228.377 432.453 228.308 432.123 228.169 431.845C228.031 431.568 227.833 431.355 227.577 431.205C227.332 431.045 227.039 430.965 226.697 430.965C226.367 430.965 226.073 431.045 225.817 431.205C225.561 431.355 225.364 431.568 225.225 431.845C225.087 432.123 225.017 432.453 225.017 432.837V437.941H222.921ZM241.831 438.133C240.935 438.133 240.151 437.931 239.479 437.525C238.807 437.12 238.284 436.571 237.911 435.877C237.537 435.184 237.351 434.416 237.351 433.573C237.351 432.699 237.537 431.925 237.911 431.253C238.295 430.571 238.812 430.032 239.463 429.637C240.124 429.243 240.86 429.045 241.671 429.045C242.353 429.045 242.951 429.157 243.463 429.381C243.985 429.605 244.428 429.915 244.791 430.309C245.153 430.704 245.431 431.157 245.623 431.669C245.815 432.171 245.911 432.715 245.911 433.301C245.911 433.451 245.9 433.605 245.879 433.765C245.868 433.925 245.841 434.064 245.799 434.181H239.079V432.581H244.615L243.623 433.333C243.719 432.843 243.692 432.405 243.543 432.021C243.404 431.637 243.169 431.333 242.839 431.109C242.519 430.885 242.129 430.773 241.671 430.773C241.233 430.773 240.844 430.885 240.503 431.109C240.161 431.323 239.9 431.643 239.719 432.069C239.548 432.485 239.484 432.992 239.527 433.589C239.484 434.123 239.553 434.597 239.735 435.013C239.927 435.419 240.204 435.733 240.567 435.957C240.94 436.181 241.367 436.293 241.847 436.293C242.327 436.293 242.732 436.192 243.063 435.989C243.404 435.787 243.671 435.515 243.863 435.173L245.559 436.005C245.388 436.421 245.121 436.789 244.759 437.109C244.396 437.429 243.964 437.68 243.463 437.861C242.972 438.043 242.428 438.133 241.831 438.133ZM247.499 437.941V429.237H249.467V430.949L249.307 430.645C249.51 430.123 249.841 429.728 250.299 429.461C250.769 429.184 251.313 429.045 251.931 429.045C252.571 429.045 253.137 429.184 253.627 429.461C254.129 429.739 254.518 430.128 254.795 430.629C255.073 431.12 255.211 431.691 255.211 432.341V437.941H253.115V432.837C253.115 432.453 253.041 432.123 252.891 431.845C252.742 431.568 252.534 431.355 252.267 431.205C252.011 431.045 251.707 430.965 251.355 430.965C251.014 430.965 250.71 431.045 250.443 431.205C250.177 431.355 249.969 431.568 249.819 431.845C249.67 432.123 249.595 432.453 249.595 432.837V437.941H247.499ZM260.296 438.133C259.368 438.133 258.557 437.915 257.864 437.477C257.181 437.029 256.712 436.427 256.456 435.669L258.024 434.917C258.248 435.408 258.557 435.792 258.952 436.069C259.357 436.347 259.805 436.485 260.296 436.485C260.68 436.485 260.984 436.4 261.208 436.229C261.432 436.059 261.544 435.835 261.544 435.557C261.544 435.387 261.496 435.248 261.4 435.141C261.314 435.024 261.192 434.928 261.032 434.853C260.882 434.768 260.717 434.699 260.536 434.645L259.112 434.245C258.376 434.032 257.816 433.707 257.432 433.269C257.058 432.832 256.872 432.315 256.872 431.717C256.872 431.184 257.005 430.72 257.272 430.325C257.549 429.92 257.928 429.605 258.408 429.381C258.898 429.157 259.458 429.045 260.088 429.045C260.909 429.045 261.634 429.243 262.264 429.637C262.893 430.032 263.341 430.587 263.608 431.301L262.008 432.053C261.858 431.659 261.608 431.344 261.256 431.109C260.904 430.875 260.509 430.757 260.072 430.757C259.72 430.757 259.442 430.837 259.24 430.997C259.037 431.157 258.936 431.365 258.936 431.621C258.936 431.781 258.978 431.92 259.064 432.037C259.149 432.155 259.266 432.251 259.416 432.325C259.576 432.4 259.757 432.469 259.96 432.533L261.352 432.949C262.066 433.163 262.616 433.483 263 433.909C263.394 434.336 263.592 434.859 263.592 435.477C263.592 436 263.453 436.464 263.176 436.869C262.898 437.264 262.514 437.573 262.024 437.797C261.533 438.021 260.957 438.133 260.296 438.133Z" fill="#646464"/>
<path d="M213.577 449.645H208.585V451.853C208.798 451.619 209.097 451.427 209.481 451.277C209.865 451.128 210.281 451.053 210.729 451.053C211.529 451.053 212.19 451.235 212.713 451.597C213.246 451.96 213.635 452.429 213.881 453.005C214.126 453.581 214.249 454.205 214.249 454.877C214.249 456.125 213.897 457.117 213.193 457.853C212.489 458.579 211.497 458.941 210.217 458.941C209.363 458.941 208.622 458.797 207.993 458.509C207.363 458.211 206.878 457.8 206.537 457.277C206.195 456.755 206.009 456.152 205.977 455.469H208.649C208.713 455.8 208.867 456.077 209.113 456.301C209.358 456.515 209.694 456.621 210.121 456.621C210.622 456.621 210.995 456.461 211.241 456.141C211.486 455.821 211.609 455.395 211.609 454.861C211.609 454.339 211.481 453.939 211.225 453.661C210.969 453.384 210.595 453.245 210.105 453.245C209.742 453.245 209.443 453.336 209.209 453.517C208.974 453.688 208.819 453.917 208.745 454.205H206.105V447.245H213.577V449.645ZM221.535 450.413C221.45 450.019 221.3 449.725 221.087 449.533C220.874 449.331 220.57 449.229 220.175 449.229C219.567 449.229 219.13 449.496 218.863 450.029C218.596 450.552 218.458 451.384 218.447 452.525C218.682 452.152 219.018 451.859 219.455 451.645C219.903 451.432 220.394 451.325 220.927 451.325C221.972 451.325 222.81 451.656 223.439 452.317C224.079 452.979 224.399 453.901 224.399 455.085C224.399 455.864 224.239 456.547 223.919 457.133C223.61 457.72 223.151 458.179 222.543 458.509C221.946 458.84 221.236 459.005 220.415 459.005C218.772 459.005 217.631 458.493 216.991 457.469C216.351 456.435 216.031 454.952 216.031 453.021C216.031 450.995 216.367 449.491 217.039 448.509C217.722 447.517 218.81 447.021 220.303 447.021C221.103 447.021 221.775 447.181 222.319 447.501C222.874 447.811 223.29 448.221 223.567 448.733C223.855 449.245 224.026 449.805 224.079 450.413H221.535ZM220.271 453.485C219.812 453.485 219.428 453.624 219.119 453.901C218.82 454.168 218.671 454.552 218.671 455.053C218.671 455.565 218.81 455.965 219.087 456.253C219.375 456.541 219.78 456.685 220.303 456.685C220.772 456.685 221.14 456.547 221.407 456.269C221.684 455.981 221.823 455.592 221.823 455.101C221.823 454.6 221.69 454.205 221.423 453.917C221.156 453.629 220.772 453.485 220.271 453.485ZM227.499 459.069C227.019 459.069 226.624 458.931 226.315 458.653C226.016 458.365 225.867 458.013 225.867 457.597C225.867 457.171 226.016 456.813 226.315 456.525C226.624 456.237 227.019 456.093 227.499 456.093C227.968 456.093 228.352 456.237 228.651 456.525C228.96 456.813 229.115 457.171 229.115 457.597C229.115 458.013 228.96 458.365 228.651 458.653C228.352 458.931 227.968 459.069 227.499 459.069ZM230.558 450.557C230.601 449.416 230.974 448.536 231.678 447.917C232.382 447.299 233.337 446.989 234.542 446.989C235.342 446.989 236.025 447.128 236.59 447.405C237.166 447.683 237.598 448.061 237.886 448.541C238.185 449.021 238.334 449.56 238.334 450.157C238.334 450.861 238.158 451.437 237.806 451.885C237.454 452.323 237.044 452.621 236.574 452.781V452.845C237.182 453.048 237.662 453.384 238.014 453.853C238.366 454.323 238.542 454.925 238.542 455.661C238.542 456.323 238.388 456.909 238.078 457.421C237.78 457.923 237.337 458.317 236.75 458.605C236.174 458.893 235.486 459.037 234.686 459.037C233.406 459.037 232.382 458.723 231.614 458.093C230.857 457.464 230.457 456.515 230.414 455.245H233.07C233.081 455.715 233.214 456.088 233.47 456.365C233.726 456.632 234.1 456.765 234.59 456.765C235.006 456.765 235.326 456.648 235.55 456.413C235.785 456.168 235.902 455.848 235.902 455.453C235.902 454.941 235.737 454.573 235.406 454.349C235.086 454.115 234.569 453.997 233.854 453.997H233.342V451.773H233.854C234.398 451.773 234.836 451.683 235.166 451.501C235.508 451.309 235.678 450.973 235.678 450.493C235.678 450.109 235.572 449.811 235.358 449.597C235.145 449.384 234.852 449.277 234.478 449.277C234.073 449.277 233.769 449.4 233.566 449.645C233.374 449.891 233.262 450.195 233.23 450.557H230.558ZM239.862 449.805V447.261H244.294V458.941H241.446V449.805H239.862ZM245.941 450.205C245.941 449.341 246.187 448.675 246.677 448.205C247.179 447.736 247.824 447.501 248.613 447.501C249.403 447.501 250.043 447.736 250.533 448.205C251.024 448.675 251.269 449.341 251.269 450.205C251.269 451.069 251.024 451.736 250.533 452.205C250.043 452.675 249.403 452.909 248.613 452.909C247.824 452.909 247.179 452.675 246.677 452.205C246.187 451.736 245.941 451.069 245.941 450.205ZM256.805 447.677L250.645 458.941H248.005L254.165 447.677H256.805ZM248.597 449.101C248.085 449.101 247.829 449.469 247.829 450.205C247.829 450.931 248.085 451.293 248.597 451.293C248.843 451.293 249.035 451.203 249.173 451.021C249.312 450.84 249.381 450.568 249.381 450.205C249.381 449.469 249.12 449.101 248.597 449.101ZM253.557 456.413C253.557 455.549 253.803 454.883 254.293 454.413C254.784 453.944 255.424 453.709 256.213 453.709C257.003 453.709 257.643 453.944 258.133 454.413C258.624 454.883 258.869 455.549 258.869 456.413C258.869 457.277 258.624 457.944 258.133 458.413C257.643 458.883 257.003 459.117 256.213 459.117C255.424 459.117 254.784 458.883 254.293 458.413C253.803 457.944 253.557 457.277 253.557 456.413ZM256.197 455.309C255.952 455.309 255.76 455.4 255.621 455.581C255.493 455.763 255.429 456.04 255.429 456.413C255.429 457.139 255.685 457.501 256.197 457.501C256.443 457.501 256.635 457.411 256.773 457.229C256.912 457.048 256.981 456.776 256.981 456.413C256.981 456.051 256.912 455.779 256.773 455.597C256.635 455.405 256.443 455.309 256.197 455.309Z" fill="#646464"/>
<circle cx="176" cy="439.941" r="8" fill="#1BBF6A"/>
</svg>
