<svg width="51" height="376" viewBox="0 0 51 376" fill="none" xmlns="http://www.w3.org/2000/svg">
<path d="M11 2.21875C11.5523 2.21875 12 1.77103 12 1.21875C12 0.666465 11.5523 0.21875 11 0.21875V2.21875ZM50.2071 368.957C50.5976 368.567 50.5976 367.933 50.2071 367.543L43.8431 361.179C43.4526 360.788 42.8195 360.788 42.4289 361.179C42.0384 361.569 42.0384 362.203 42.4289 362.593L48.0858 368.25L42.4289 373.907C42.0384 374.297 42.0384 374.931 42.4289 375.321C42.8195 375.712 43.4526 375.712 43.8431 375.321L50.2071 368.957ZM0 11.2188V344.25H2V11.2188H0ZM25 369.25H49.5V367.25H25V369.25ZM0 344.25C0 358.057 11.1929 369.25 25 369.25V367.25C12.2975 367.25 2 356.953 2 344.25H0ZM11 0.21875C4.92487 0.21875 0 5.14362 0 11.2188H2C2 6.24819 6.02944 2.21875 11 2.21875V0.21875Z" fill="#086D39"/>
<path d="M11 2.21875C11.5523 2.21875 12 1.77103 12 1.21875C12 0.666465 11.5523 0.21875 11 0.21875V2.21875ZM50.2071 368.957C50.5976 368.567 50.5976 367.933 50.2071 367.543L43.8431 361.179C43.4526 360.788 42.8195 360.788 42.4289 361.179C42.0384 361.569 42.0384 362.203 42.4289 362.593L48.0858 368.25L42.4289 373.907C42.0384 374.297 42.0384 374.931 42.4289 375.321C42.8195 375.712 43.4526 375.712 43.8431 375.321L50.2071 368.957ZM0 11.2188V344.25H2V11.2188H0ZM25 369.25H49.5V367.25H25V369.25ZM0 344.25C0 358.057 11.1929 369.25 25 369.25V367.25C12.2975 367.25 2 356.953 2 344.25H0ZM11 0.21875C4.92487 0.21875 0 5.14362 0 11.2188H2C2 6.24819 6.02944 2.21875 11 2.21875V0.21875Z" fill="#086D39"/>
</svg>
