<svg width="81" height="132" viewBox="0 0 81 132" fill="none" xmlns="http://www.w3.org/2000/svg">
<path d="M29 131.719C29.5523 131.719 30 131.271 30 130.719C30 130.166 29.5523 129.719 29 129.719V131.719ZM80.2071 8.29304C80.5976 7.90252 80.5976 7.26936 80.2071 6.87883L73.8431 0.51487C73.4526 0.124345 72.8195 0.124345 72.4289 0.51487C72.0384 0.905394 72.0384 1.53856 72.4289 1.92908L78.0858 7.58594L72.4289 13.2428C72.0384 13.6333 72.0384 14.2665 72.4289 14.657C72.8195 15.0475 73.4526 15.0475 73.8431 14.657L80.2071 8.29304ZM29 129.719H25V131.719H29V129.719ZM2 106.719V31.5859H0V106.719H2ZM25 8.58594H79.5V6.58594H25V8.58594ZM2 31.5859C2 18.8834 12.2975 8.58594 25 8.58594V6.58594C11.1929 6.58594 0 17.7788 0 31.5859H2ZM25 129.719C12.2975 129.719 2 119.421 2 106.719H0C0 120.526 11.1929 131.719 25 131.719V129.719Z" fill="#086D39"/>
<path d="M29 131.719C29.5523 131.719 30 131.271 30 130.719C30 130.166 29.5523 129.719 29 129.719V131.719ZM80.2071 8.29304C80.5976 7.90252 80.5976 7.26936 80.2071 6.87883L73.8431 0.51487C73.4526 0.124345 72.8195 0.124345 72.4289 0.51487C72.0384 0.905394 72.0384 1.53856 72.4289 1.92908L78.0858 7.58594L72.4289 13.2428C72.0384 13.6333 72.0384 14.2665 72.4289 14.657C72.8195 15.0475 73.4526 15.0475 73.8431 14.657L80.2071 8.29304ZM29 129.719H25V131.719H29V129.719ZM2 106.719V31.5859H0V106.719H2ZM25 8.58594H79.5V6.58594H25V8.58594ZM2 31.5859C2 18.8834 12.2975 8.58594 25 8.58594V6.58594C11.1929 6.58594 0 17.7788 0 31.5859H2ZM25 129.719C12.2975 129.719 2 119.421 2 106.719H0C0 120.526 11.1929 131.719 25 131.719V129.719Z" fill="#086D39"/>
</svg>
