<svg width="78" height="230" viewBox="0 0 78 230" fill="none" xmlns="http://www.w3.org/2000/svg">
<path d="M40.5 0.21875C39.9477 0.21875 39.5 0.666465 39.5 1.21875C39.5 1.77103 39.9477 2.21875 40.5 2.21875V0.21875ZM0.292893 221.793C-0.0976311 222.183 -0.0976311 222.817 0.292893 223.207L6.65685 229.571C7.04738 229.962 7.68054 229.962 8.07107 229.571C8.46159 229.181 8.46159 228.547 8.07107 228.157L2.41421 222.5L8.07107 216.843C8.46159 216.453 8.46159 215.819 8.07107 215.429C7.68054 215.038 7.04738 215.038 6.65685 215.429L0.292893 221.793ZM40.5 2.21875H53V0.21875H40.5V2.21875ZM76 25.2187V198.5H78V25.2187H76ZM53 221.5H1V223.5H53V221.5ZM76 198.5C76 211.203 65.7026 221.5 53 221.5V223.5C66.8071 223.5 78 212.307 78 198.5H76ZM53 2.21875C65.7025 2.21875 76 12.5162 76 25.2187H78C78 11.4116 66.8071 0.21875 53 0.21875V2.21875Z" fill="#086D39"/>
<path d="M40.5 0.21875C39.9477 0.21875 39.5 0.666465 39.5 1.21875C39.5 1.77103 39.9477 2.21875 40.5 2.21875V0.21875ZM0.292893 221.793C-0.0976311 222.183 -0.0976311 222.817 0.292893 223.207L6.65685 229.571C7.04738 229.962 7.68054 229.962 8.07107 229.571C8.46159 229.181 8.46159 228.547 8.07107 228.157L2.41421 222.5L8.07107 216.843C8.46159 216.453 8.46159 215.819 8.07107 215.429C7.68054 215.038 7.04738 215.038 6.65685 215.429L0.292893 221.793ZM40.5 2.21875H53V0.21875H40.5V2.21875ZM76 25.2187V198.5H78V25.2187H76ZM53 221.5H1V223.5H53V221.5ZM76 198.5C76 211.203 65.7026 221.5 53 221.5V223.5C66.8071 223.5 78 212.307 78 198.5H76ZM53 2.21875C65.7025 2.21875 76 12.5162 76 25.2187H78C78 11.4116 66.8071 0.21875 53 0.21875V2.21875Z" fill="#086D39"/>
</svg>
