<svg width="69" height="376" viewBox="0 0 69 376" fill="none" xmlns="http://www.w3.org/2000/svg">
<path d="M29 2.21875C29.5523 2.21875 30 1.77103 30 1.21875C30 0.666465 29.5523 0.21875 29 0.21875V2.21875ZM68.2071 368.957C68.5976 368.567 68.5976 367.933 68.2071 367.543L61.8431 361.179C61.4526 360.788 60.8195 360.788 60.4289 361.179C60.0384 361.569 60.0384 362.203 60.4289 362.593L66.0858 368.25L60.4289 373.907C60.0384 374.297 60.0384 374.931 60.4289 375.321C60.8195 375.712 61.4526 375.712 61.8431 375.321L68.2071 368.957ZM29 0.21875H25V2.21875H29V0.21875ZM0 25.2188V344.25H2V25.2188H0ZM25 369.25H67.5V367.25H25V369.25ZM0 344.25C0 358.057 11.1929 369.25 25 369.25V367.25C12.2975 367.25 2 356.953 2 344.25H0ZM25 0.21875C11.1929 0.21875 0 11.4116 0 25.2188H2C2 12.5162 12.2975 2.21875 25 2.21875V0.21875Z" fill="#086D39"/>
<path d="M29 2.21875C29.5523 2.21875 30 1.77103 30 1.21875C30 0.666465 29.5523 0.21875 29 0.21875V2.21875ZM68.2071 368.957C68.5976 368.567 68.5976 367.933 68.2071 367.543L61.8431 361.179C61.4526 360.788 60.8195 360.788 60.4289 361.179C60.0384 361.569 60.0384 362.203 60.4289 362.593L66.0858 368.25L60.4289 373.907C60.0384 374.297 60.0384 374.931 60.4289 375.321C60.8195 375.712 61.4526 375.712 61.8431 375.321L68.2071 368.957ZM29 0.21875H25V2.21875H29V0.21875ZM0 25.2188V344.25H2V25.2188H0ZM25 369.25H67.5V367.25H25V369.25ZM0 344.25C0 358.057 11.1929 369.25 25 369.25V367.25C12.2975 367.25 2 356.953 2 344.25H0ZM25 0.21875C11.1929 0.21875 0 11.4116 0 25.2188H2C2 12.5162 12.2975 2.21875 25 2.21875V0.21875Z" fill="#086D39"/>
</svg>
